<?xml version="1.0" encoding="iso-8859-1"?>
<!-- Generator: Adobe Illustrator 18.0.0, SVG Export Plug-In . SVG Version: 6.00 Build 0)  -->
<!DOCTYPE svg PUBLIC "-//W3C//DTD SVG 1.1//EN" "http://www.w3.org/Graphics/SVG/1.1/DTD/svg11.dtd">
<svg version="1.1" id="Capa_1" xmlns="http://www.w3.org/2000/svg" xmlns:xlink="http://www.w3.org/1999/xlink" x="0px" y="0px"
	 viewBox="0 0 297 297" style="enable-background:new 0 0 297 297;" xml:space="preserve">
<g>
	<g>
		<g>
			<path style="fill:#17AB93;" d="M198,82.5V198h41.25c31.894,0,57.75-25.856,57.75-57.75v0c0-31.894-25.856-57.75-57.75-57.75H198z
				 M221.294,109.676h21.838c16.885,0,30.573,13.688,30.573,30.573v0c0,16.885-13.688,30.574-30.573,30.574h-21.838V109.676z"/>
		</g>
	</g>
	<g>
		<g>
			<path style="fill:#17AB93;" d="M57.75,82.5C25.856,82.5,0,108.356,0,140.25v0C0,172.144,25.856,198,57.75,198H99V82.5H57.75z
				 M75.706,170.824H53.868c-16.885,0-30.573-13.688-30.573-30.574v0c0-16.885,13.688-30.573,30.573-30.573h21.838V170.824z"/>
		</g>
	</g>
	<g>
		<g>
			<path style="fill:#17AB93;" d="M66,248v28.667C66,287.896,75.104,297,86.333,297h124.333c11.23,0,20.333-9.104,20.333-20.333V248
				H66z"/>
		</g>
	</g>
	<g>
		<g>
			<path style="fill:#9ADAD9;" d="M231,69.833c0-11.23-9.104-20.333-20.333-20.333H86.333C75.104,49.5,66,58.604,66,69.833V248h165
				V69.833z"/>
		</g>
	</g>
	<g style="opacity:0.6;">
		<path style="fill:#BDC3C7;" d="M198,248v28.667c0,11.23-9.104,20.333-20.333,20.333h33c11.23,0,20.333-9.104,20.333-20.333V248
			H198z"/>
	</g>
	<g style="opacity:0.6;">
		<path style="fill:#BDC3C7;" d="M210.667,49.5h-33c11.23,0,20.333,9.104,20.333,20.333V248h33V69.833
			C231,58.604,221.896,49.5,210.667,49.5z"/>
	</g>
	<g>
		<g>
			<path style="fill:#ECA684;" d="M214.5,34.917c0-10.171-8.245-18.417-18.417-18.417h-16.917v33H214.5V34.917z"/>
		</g>
	</g>
	<g>
		<g>
			<path style="fill:#EDB7AB;" d="M165,16.5L148.5,0H132l-16.5,16.5h-14.583C90.745,16.5,82.5,24.745,82.5,34.917V49.5h96.667v-33
				H165z"/>
		</g>
	</g>
	<g style="opacity:0.7;">
		<circle style="fill:#ECF0F1;" cx="148.5" cy="148.75" r="23.5"/>
	</g>
</g>
<g>
</g>
<g>
</g>
<g>
</g>
<g>
</g>
<g>
</g>
<g>
</g>
<g>
</g>
<g>
</g>
<g>
</g>
<g>
</g>
<g>
</g>
<g>
</g>
<g>
</g>
<g>
</g>
<g>
</g>
</svg>
